<svg width="656" height="425" viewBox="0 0 656 425" fill="none" xmlns="http://www.w3.org/2000/svg">
<path d="M389.901 122.785C408.561 122.755 435.231 133.325 442.091 152.075C453.871 184.225 417.951 206.505 389.911 205.715C390.951 219.825 364.811 222.395 354.291 223.575C347.531 224.335 326.501 223.875 322.631 225.915C320.491 227.045 320.151 229.855 318.441 231.715C305.501 245.745 271.481 245.845 259.411 230.675C249.261 239.855 234.711 243.225 222.581 235.525C198.121 220.015 218.691 186.905 243.911 193.715L243.891 111.265C244.021 107.135 247.141 104.705 250.391 102.765C271.331 90.2653 365.331 89.8953 385.251 103.955C392.751 109.255 389.221 114.685 389.911 122.785H389.901ZM380.871 108.845C379.491 106.755 358.091 102.445 354.291 101.925C330.921 98.7253 301.931 98.7953 278.541 101.925C274.721 102.435 251.941 106.565 251.941 110.295C265.501 122.155 279.001 113.585 293.741 111.115C309.661 108.445 324.321 108.565 340.261 110.965C352.051 112.745 368.671 120.345 379.321 112.695C380.501 111.845 381.781 110.225 380.881 108.865L380.871 108.845ZM346.901 118.795C327.461 115.245 307.151 113.935 287.901 119.285C302.931 121.705 318.241 120.485 333.451 120.825L346.901 118.795ZM380.911 119.775C372.241 122.325 363.291 124.535 354.281 125.645C328.791 128.775 298.011 128.755 272.721 124.465C266.001 123.325 259.471 121.505 252.911 119.785V197.225C252.911 198.085 264.291 205.475 262.921 210.715C269.731 207.135 276.611 204.295 284.421 203.735C294.061 203.045 310.431 205.575 317.441 212.675C319.581 214.845 321.151 219.565 323.401 219.745C337.271 218.195 351.291 218.435 365.111 215.415C370.231 214.295 377.081 212.755 380.911 209.215V119.785V119.775ZM389.911 199.715C406.451 197.995 427.421 190.875 433.391 173.715C442.551 147.395 413.041 128.895 389.911 129.775V144.765C424.501 143.195 426.691 183.425 391.561 183.885L389.911 185.225V199.715ZM389.911 177.735C414.061 176.955 413.291 152.015 389.911 150.755V177.735ZM233.911 200.715C216.051 203.655 216.681 228.775 233.911 232.695V200.715ZM242.911 231.695C257.831 227.145 258.041 205.565 242.911 200.715V231.695ZM311.911 219.705C303.931 207.725 278.611 208.145 268.581 216.875C267.551 217.775 266.491 217.825 266.911 219.705H311.911ZM312.911 225.695H266.911C267.101 230.475 273.021 232.925 276.961 234.145C288.531 237.725 305.681 236.855 312.911 225.695Z" fill="#776B5D"/>
<path d="M296.771 83.6753C289.671 88.1453 281.821 78.5853 280.941 72.2353C279.271 60.2153 293.811 57.4053 290.351 47.8853C289.001 44.1653 282.181 42.7253 285.811 38.2553C290.761 32.1553 304.941 44.8853 299.461 56.8953C297.881 60.3553 291.291 65.9953 290.891 68.3753C289.601 76.0653 298.431 76.6153 296.771 83.6853V83.6753Z" fill="#776B5D"/>
<path d="M346.641 36.9953C351.851 36.1953 358.651 45.5153 358.861 50.4153C359.321 61.2853 344.181 64.0553 349.721 74.5153C351.321 77.5353 357.651 80.7553 353.491 83.8853C346.881 88.8653 338.441 76.1053 338.251 70.1653C337.981 61.4353 346.411 59.6153 347.691 54.1253C349.921 44.5553 342.541 44.2953 341.981 41.2053C341.681 39.5453 345.171 37.2253 346.631 36.9953H346.641Z" fill="#776B5D"/>
<path d="M318.591 37.1153C323.971 36.9853 329.801 45.4353 329.961 50.3753C330.301 61.3753 317.591 62.5553 320.381 72.8453C321.531 77.0653 328.721 80.6653 324.311 83.7153C317.571 88.3753 309.961 76.6353 309.831 70.3153C309.611 60.0753 322.671 56.1753 319.161 48.1053C318.161 45.7953 307.681 37.3753 318.581 37.1153H318.591Z" fill="#776B5D"/>
<path d="M80.9869 327.708C80.9869 328.271 80.5441 329.076 79.6584 330.121C78.7728 331.086 78.1287 331.769 77.7261 332.171C77.0015 332.895 76.2768 333.619 75.5522 334.343C74.8276 335.066 74.0225 335.75 73.1368 336.393C70.6409 338.162 67.6619 339.69 64.1998 340.977C60.7377 342.183 57.4769 342.786 54.4173 342.786C48.2983 342.786 42.9038 341.459 38.234 338.806C33.6447 336.072 30.0216 332.373 27.3647 327.708C24.7882 322.964 23.5 317.576 23.5 311.545C23.5 305.594 24.7077 300.005 27.1231 294.778C29.5385 289.552 33.363 285.33 38.5964 282.113C40.8507 280.746 43.3467 279.66 46.0841 278.856C48.9021 278.052 51.5993 277.65 54.1758 277.65C56.1886 277.65 58.121 277.891 59.9728 278.374C61.9051 278.856 63.7569 279.5 65.5282 280.304C66.5749 280.786 67.5813 281.269 68.5475 281.751C69.5137 282.234 70.5604 282.475 71.6876 282.475C72.6537 282.475 73.4186 282.194 73.9822 281.631C74.6263 280.987 75.1094 280.666 75.4315 280.666C75.673 280.666 75.7938 280.826 75.7938 281.148C75.9548 282.113 75.995 283.078 75.9145 284.043C75.9145 285.008 75.9548 285.933 76.0353 286.817C76.1158 288.587 76.1963 290.356 76.2768 292.125C76.3574 293.894 76.4379 295.663 76.5184 297.432V297.794C76.5989 298.679 76.5184 299.362 76.2768 299.845C76.0353 300.327 75.3912 300.568 74.3445 300.568C73.7809 300.568 73.3783 300.247 73.1368 299.603C72.9758 298.96 72.8148 298.397 72.6537 297.915C72.0901 295.583 71.2447 293.09 70.1175 290.436C68.9903 287.782 67.4606 285.651 65.5282 284.043C64.3205 282.917 62.7908 281.992 60.939 281.269C59.1676 280.545 57.4769 280.183 55.8666 280.183C52.0019 280.183 48.7008 281.188 45.9634 283.199C43.3064 285.129 41.1728 287.662 39.5625 290.798C37.9522 293.854 36.7445 297.151 35.9394 300.689C35.2148 304.227 34.8525 307.564 34.8525 310.701C34.8525 313.837 35.2148 317.053 35.9394 320.35C36.664 323.567 37.7912 326.583 39.321 329.397C40.9313 332.212 43.0246 334.463 45.6011 336.152C48.258 337.841 51.4383 338.685 55.142 338.685C60.2948 338.685 64.6023 337.76 68.0644 335.911C71.5265 333.981 74.8679 331.046 78.0884 327.105C78.4105 326.542 78.8533 326.261 79.4169 326.261C80.4636 326.261 80.9869 326.743 80.9869 327.708Z" fill="#776B5D"/>
<path d="M139.686 310.821C139.686 307.363 139.404 303.906 138.841 300.448C138.358 296.909 137.392 293.653 135.942 290.677C134.574 287.702 132.561 285.33 129.904 283.561C127.247 281.711 123.785 280.786 119.518 280.786C115.492 280.786 112.191 281.751 109.614 283.681C107.118 285.611 105.146 288.104 103.697 291.16C102.328 294.216 101.362 297.513 100.798 301.051C100.315 304.589 100.073 307.926 100.073 311.063C100.073 314.52 100.315 317.978 100.798 321.436C101.362 324.894 102.368 328.03 103.817 330.845C105.267 333.579 107.32 335.79 109.977 337.479C112.714 339.168 116.216 340.012 120.484 340.012C124.67 340.012 128.012 339.127 130.508 337.358C133.084 335.589 135.016 333.257 136.305 330.362C137.673 327.467 138.559 324.331 138.962 320.954C139.445 317.496 139.686 314.118 139.686 310.821ZM152.126 311.183C152.126 317.214 150.676 322.642 147.778 327.467C144.96 332.292 141.095 336.112 136.184 338.926C131.353 341.741 125.918 343.148 119.88 343.148C114.002 343.148 108.688 341.741 103.938 338.926C99.1878 336.031 95.4036 332.212 92.5856 327.467C89.7676 322.642 88.3586 317.295 88.3586 311.424C88.3586 305.393 89.7274 299.845 92.4648 294.778C95.2023 289.632 98.9462 285.491 103.697 282.354C108.527 279.218 114.083 277.65 120.363 277.65C127.126 277.65 132.883 279.098 137.633 281.992C142.383 284.807 145.966 288.747 148.382 293.813C150.878 298.799 152.126 304.589 152.126 311.183Z" fill="#776B5D"/>
<path d="M207.09 266.312C207.09 266.955 206.809 267.558 206.245 268.121C205.682 268.684 205.078 268.965 204.434 268.965C203.306 268.965 202.541 268.483 202.139 267.518C201.736 266.392 201.294 265.266 200.81 264.14C200.408 263.015 200.005 261.889 199.603 260.763C198.959 259.155 198.033 257.868 196.825 256.903C195.698 255.858 194.208 255.335 192.356 255.335C189.297 255.335 187.002 256.421 185.473 258.592C184.023 260.683 183.299 263.135 183.299 265.95C183.299 268.684 183.299 271.418 183.299 274.152C183.299 276.886 183.339 279.66 183.419 282.475C185.996 282.475 188.572 282.475 191.149 282.475C193.725 282.395 196.302 282.354 198.878 282.354C199.442 282.354 199.844 282.596 200.086 283.078C200.408 283.48 200.569 283.922 200.569 284.405C200.569 284.968 200.448 285.45 200.207 285.852C199.965 286.254 199.522 286.456 198.878 286.456C197.268 286.456 195.658 286.456 194.047 286.456C192.437 286.375 190.827 286.335 189.216 286.335H183.782V333.016C183.782 334.785 184.184 336.393 184.989 337.841C185.795 339.208 187.204 339.891 189.216 339.891C190.102 339.891 190.947 339.851 191.753 339.771C192.638 339.61 193.484 339.529 194.289 339.529C194.772 339.529 195.094 339.771 195.255 340.253C195.497 340.655 195.617 341.057 195.617 341.459C195.617 342.344 195.174 342.786 194.289 342.786C191.551 342.786 188.774 342.746 185.956 342.666C183.218 342.505 180.481 342.424 177.743 342.424C176.213 342.424 174.724 342.424 173.275 342.424C171.825 342.424 170.376 342.465 168.927 342.545C167.88 342.625 166.874 342.706 165.908 342.786C164.941 342.867 163.935 342.907 162.888 342.907C161.681 342.907 161.077 342.424 161.077 341.459C161.077 340.575 161.359 340.092 161.922 340.012C162.486 339.851 163.049 339.771 163.613 339.771C164.177 339.771 164.7 339.811 165.183 339.891C165.747 339.891 166.31 339.891 166.874 339.891C169.209 339.891 170.698 339.248 171.342 337.961C172.067 336.675 172.429 335.026 172.429 333.016V286.214H165.545C164.982 286.214 164.338 286.295 163.613 286.456C162.969 286.536 162.405 286.737 161.922 287.059C161.842 287.139 161.721 287.26 161.56 287.421C161.479 287.581 161.359 287.662 161.198 287.662C160.553 287.662 160.231 287.421 160.231 286.938C160.231 286.777 160.312 286.174 160.473 285.129C160.715 284.003 160.876 283.4 160.956 283.319C161.117 282.917 161.318 282.716 161.56 282.716C161.801 282.636 162.083 282.596 162.405 282.596C162.969 282.596 163.492 282.636 163.975 282.716C164.458 282.716 164.982 282.716 165.545 282.716H172.188C172.188 281.028 172.188 279.339 172.188 277.65C172.188 275.961 172.188 274.273 172.188 272.584C172.188 265.186 174.12 260.039 177.985 257.144C181.93 254.169 187.365 252.681 194.289 252.681C196.382 252.681 198.395 253.123 200.327 254.008C202.26 254.812 204.273 255.214 206.366 255.214C206.446 257.064 206.567 258.913 206.728 260.763C206.97 262.612 207.09 264.462 207.09 266.312Z" fill="#776B5D"/>
<path d="M254.149 266.312C254.149 266.955 253.867 267.558 253.303 268.121C252.74 268.684 252.136 268.965 251.492 268.965C250.365 268.965 249.6 268.483 249.197 267.518C248.794 266.392 248.352 265.266 247.869 264.14C247.466 263.015 247.063 261.889 246.661 260.763C246.017 259.155 245.091 257.868 243.883 256.903C242.756 255.858 241.266 255.335 239.415 255.335C236.355 255.335 234.06 256.421 232.531 258.592C231.081 260.683 230.357 263.135 230.357 265.95C230.357 268.684 230.357 271.418 230.357 274.152C230.357 276.886 230.397 279.66 230.478 282.475C233.054 282.475 235.63 282.475 238.207 282.475C240.783 282.395 243.36 282.354 245.936 282.354C246.5 282.354 246.902 282.596 247.144 283.078C247.466 283.48 247.627 283.922 247.627 284.405C247.627 284.968 247.506 285.45 247.265 285.852C247.023 286.254 246.58 286.456 245.936 286.456C244.326 286.456 242.716 286.456 241.105 286.456C239.495 286.375 237.885 286.335 236.275 286.335H230.84V333.016C230.84 334.785 231.242 336.393 232.048 337.841C232.853 339.208 234.262 339.891 236.275 339.891C237.16 339.891 238.006 339.851 238.811 339.771C239.696 339.61 240.542 339.529 241.347 339.529C241.83 339.529 242.152 339.771 242.313 340.253C242.555 340.655 242.675 341.057 242.675 341.459C242.675 342.344 242.233 342.786 241.347 342.786C238.609 342.786 235.832 342.746 233.014 342.666C230.276 342.505 227.539 342.424 224.801 342.424C223.272 342.424 221.782 342.424 220.333 342.424C218.884 342.424 217.434 342.465 215.985 342.545C214.938 342.625 213.932 342.706 212.966 342.786C212 342.867 210.993 342.907 209.947 342.907C208.739 342.907 208.135 342.424 208.135 341.459C208.135 340.575 208.417 340.092 208.98 340.012C209.544 339.851 210.108 339.771 210.671 339.771C211.235 339.771 211.758 339.811 212.241 339.891C212.805 339.891 213.368 339.891 213.932 339.891C216.267 339.891 217.756 339.248 218.4 337.961C219.125 336.675 219.487 335.026 219.487 333.016V286.214H212.604C212.04 286.214 211.396 286.295 210.671 286.456C210.027 286.536 209.463 286.737 208.98 287.059C208.9 287.139 208.779 287.26 208.618 287.421C208.538 287.581 208.417 287.662 208.256 287.662C207.612 287.662 207.29 287.421 207.29 286.938C207.29 286.777 207.37 286.174 207.531 285.129C207.773 284.003 207.934 283.4 208.014 283.319C208.175 282.917 208.377 282.716 208.618 282.716C208.86 282.636 209.141 282.596 209.463 282.596C210.027 282.596 210.55 282.636 211.033 282.716C211.517 282.716 212.04 282.716 212.604 282.716H219.246C219.246 281.028 219.246 279.339 219.246 277.65C219.246 275.961 219.246 274.273 219.246 272.584C219.246 265.186 221.178 260.039 225.043 257.144C228.988 254.169 234.423 252.681 241.347 252.681C243.44 252.681 245.453 253.123 247.385 254.008C249.318 254.812 251.331 255.214 253.424 255.214C253.505 257.064 253.625 258.913 253.786 260.763C254.028 262.612 254.149 264.462 254.149 266.312Z" fill="#776B5D"/>
<path d="M301.086 300.327C301.006 297.03 300.724 293.894 300.241 290.919C299.758 287.863 298.59 285.37 296.738 283.44C294.886 281.43 291.867 280.424 287.68 280.424C283.896 280.424 280.797 281.47 278.381 283.561C276.046 285.571 274.235 288.144 272.946 291.28C271.658 294.336 270.692 297.472 270.048 300.689C272.061 300.769 274.033 300.85 275.966 300.93C277.898 300.93 279.83 300.93 281.763 300.93C284.983 300.93 288.204 300.89 291.424 300.81C294.645 300.649 297.866 300.488 301.086 300.327ZM314.975 327.95C314.975 328.352 314.894 328.593 314.733 328.673C314.492 329.478 313.888 330.443 312.922 331.568C312.036 332.694 311.03 333.78 309.902 334.825C308.775 335.79 307.849 336.514 307.125 336.996C304.468 338.846 301.448 340.334 298.067 341.459C294.766 342.585 291.465 343.148 288.164 343.148C285.426 343.148 282.367 342.706 278.985 341.821C275.684 340.937 272.866 339.73 270.531 338.203C266.022 335.227 262.721 331.327 260.628 326.502C258.534 321.677 257.488 316.651 257.488 311.424C257.488 305.474 258.655 299.965 260.99 294.899C263.325 289.833 267.069 285.732 272.222 282.596C274.557 281.229 277.173 280.103 280.072 279.218C282.97 278.253 285.748 277.771 288.405 277.771C293.155 277.771 297.342 278.736 300.965 280.666C304.588 282.596 307.406 285.33 309.419 288.868C311.513 292.326 312.559 296.467 312.559 301.292C312.559 302.659 312.237 303.544 311.593 303.946C311.03 304.348 310.144 304.549 308.936 304.549C307.326 304.549 305.716 304.509 304.105 304.428C302.495 304.348 300.885 304.267 299.274 304.187C297.02 304.026 294.766 303.946 292.511 303.946C290.337 303.946 288.123 303.946 285.869 303.946C283.131 303.946 280.394 303.946 277.657 303.946C274.919 303.946 272.182 304.026 269.444 304.187C269.364 305.474 269.283 306.72 269.203 307.926C269.122 309.133 269.082 310.379 269.082 311.666C269.082 314.641 269.444 317.737 270.169 320.954C270.893 324.09 272.061 327.025 273.671 329.759C275.281 332.413 277.334 334.584 279.83 336.273C282.326 337.881 285.346 338.685 288.888 338.685C292.511 338.685 295.973 338.122 299.274 336.996C302.576 335.871 305.595 334.061 308.332 331.568C309.057 330.845 309.701 330.081 310.265 329.277C310.909 328.392 311.593 327.628 312.318 326.985C312.72 326.583 313.163 326.382 313.646 326.382C314.049 326.382 314.371 326.542 314.612 326.864C314.854 327.186 314.975 327.548 314.975 327.95Z" fill="#776B5D"/>
<path d="M366.897 300.327C366.816 297.03 366.534 293.894 366.051 290.919C365.568 287.863 364.401 285.37 362.549 283.44C360.697 281.43 357.678 280.424 353.491 280.424C349.707 280.424 346.607 281.47 344.192 283.561C341.857 285.571 340.045 288.144 338.757 291.28C337.469 294.336 336.503 297.472 335.859 300.689C337.871 300.769 339.844 300.85 341.776 300.93C343.709 300.93 345.641 300.93 347.573 300.93C350.794 300.93 354.014 300.89 357.235 300.81C360.456 300.649 363.676 300.488 366.897 300.327ZM380.785 327.95C380.785 328.352 380.705 328.593 380.544 328.673C380.302 329.478 379.698 330.443 378.732 331.568C377.847 332.694 376.84 333.78 375.713 334.825C374.586 335.79 373.66 336.514 372.935 336.996C370.278 338.846 367.259 340.334 363.877 341.459C360.576 342.585 357.275 343.148 353.974 343.148C351.237 343.148 348.177 342.706 344.796 341.821C341.495 340.937 338.677 339.73 336.342 338.203C331.833 335.227 328.532 331.327 326.438 326.502C324.345 321.677 323.298 316.651 323.298 311.424C323.298 305.474 324.466 299.965 326.801 294.899C329.136 289.833 332.88 285.732 338.032 282.596C340.367 281.229 342.984 280.103 345.883 279.218C348.781 278.253 351.559 277.771 354.216 277.771C358.966 277.771 363.153 278.736 366.776 280.666C370.399 282.596 373.217 285.33 375.23 288.868C377.323 292.326 378.37 296.467 378.37 301.292C378.37 302.659 378.048 303.544 377.404 303.946C376.84 304.348 375.954 304.549 374.747 304.549C373.137 304.549 371.526 304.509 369.916 304.428C368.306 304.348 366.695 304.267 365.085 304.187C362.831 304.026 360.576 303.946 358.322 303.946C356.148 303.946 353.934 303.946 351.68 303.946C348.942 303.946 346.205 303.946 343.467 303.946C340.73 303.946 337.992 304.026 335.255 304.187C335.174 305.474 335.094 306.72 335.013 307.926C334.933 309.133 334.892 310.379 334.892 311.666C334.892 314.641 335.255 317.737 335.979 320.954C336.704 324.09 337.871 327.025 339.482 329.759C341.092 332.413 343.145 334.584 345.641 336.273C348.137 337.881 351.156 338.685 354.699 338.685C358.322 338.685 361.784 338.122 365.085 336.996C368.386 335.871 371.405 334.061 374.143 331.568C374.868 330.845 375.512 330.081 376.075 329.277C376.719 328.392 377.404 327.628 378.128 326.985C378.531 326.583 378.974 326.382 379.457 326.382C379.859 326.382 380.181 326.542 380.423 326.864C380.665 327.186 380.785 327.548 380.785 327.95Z" fill="#776B5D"/>
<path d="M516.643 278.977C516.643 280.022 516.12 280.545 515.073 280.545C514.107 280.465 513.302 280.424 512.658 280.424C511.691 280.424 510.766 280.585 509.88 280.907C509.075 281.148 508.471 281.751 508.068 282.716C507.746 283.601 507.424 284.526 507.102 285.491C506.861 286.456 506.579 287.38 506.257 288.265L502.03 301.654L488.866 342.424L478.479 343.028C476.064 334.745 473.608 326.502 471.112 318.3C468.697 310.098 466.282 301.895 463.866 293.693C461.37 301.815 458.874 309.937 456.378 318.059C453.963 326.181 451.387 334.302 448.649 342.424L437.9 343.028C436.21 336.594 434.438 330.161 432.587 323.728C430.815 317.295 429.124 310.861 427.514 304.428C426.79 301.373 426.025 298.277 425.22 295.14C424.414 292.004 423.569 288.948 422.683 285.973C422.361 284.847 421.918 283.922 421.355 283.199C420.872 282.475 419.946 282.113 418.577 282.113C418.014 282.113 417.41 282.153 416.766 282.234C416.202 282.314 415.598 282.354 414.954 282.354C414.149 282.354 413.746 281.872 413.746 280.907C413.746 280.183 414.149 279.701 414.954 279.459C416.081 279.138 417.369 278.937 418.819 278.856C420.268 278.776 421.596 278.655 422.804 278.494C424.173 278.334 425.542 278.133 426.91 277.891C428.279 277.65 429.608 277.529 430.896 277.529C431.62 277.529 432.144 277.972 432.466 278.856C432.868 279.66 433.15 280.585 433.311 281.631C433.553 282.596 433.714 283.319 433.794 283.802C435.807 292.808 437.9 301.734 440.074 310.58C442.248 319.426 444.301 328.352 446.234 337.358C448.327 330.684 450.3 324.05 452.151 317.456C454.084 310.781 455.976 304.147 457.828 297.553C458.391 295.542 458.955 293.572 459.518 291.642C460.163 289.632 460.726 287.622 461.209 285.611C461.451 284.646 461.652 283.641 461.813 282.596C461.974 281.55 462.216 280.545 462.538 279.58C462.94 278.535 463.705 278.012 464.832 278.012C466.04 278.012 467.046 278.012 467.852 278.012C469.22 278.012 469.985 278.615 470.146 279.821C470.388 280.947 470.67 282.073 470.992 283.199C473.568 292.205 476.104 301.212 478.6 310.218C481.177 319.144 483.753 328.07 486.33 336.996C488.181 331.046 489.993 325.135 491.764 319.265C493.536 313.314 495.226 307.323 496.837 301.292C497.642 298.478 498.447 295.623 499.252 292.728C500.057 289.753 500.782 286.817 501.426 283.922C501.506 283.52 501.547 283.159 501.547 282.837C501.627 282.435 501.667 282.073 501.667 281.751C501.667 281.028 501.144 280.585 500.097 280.424C499.051 280.264 497.964 280.223 496.837 280.304C495.709 280.304 494.945 280.304 494.542 280.304C493.656 280.304 493.214 279.861 493.214 278.977C493.214 278.092 493.616 277.65 494.421 277.65H515.315C516.2 277.65 516.643 278.092 516.643 278.977Z" fill="#776B5D"/>
<path d="M554.754 340.856C554.754 341.258 554.633 341.66 554.391 342.063C554.15 342.384 553.828 342.545 553.425 342.545C551.171 342.545 548.917 342.505 546.662 342.424C544.488 342.264 542.234 342.183 539.899 342.183H536.638C534.223 342.183 531.807 342.264 529.392 342.424C527.057 342.505 524.722 342.545 522.387 342.545C522.065 342.545 521.824 342.344 521.663 341.942C521.582 341.54 521.542 341.218 521.542 340.977C521.542 340.575 521.582 340.293 521.663 340.133C521.743 339.891 521.985 339.73 522.387 339.65C522.79 339.489 523.233 339.449 523.716 339.529C524.279 339.529 524.803 339.529 525.286 339.529C525.849 339.529 526.373 339.57 526.856 339.65C527.339 339.65 527.862 339.65 528.426 339.65C529.553 339.65 530.559 339.409 531.445 338.926C532.411 338.363 532.894 337.439 532.894 336.152V287.903C532.894 286.536 532.653 285.491 532.17 284.767C531.687 283.963 530.68 283.561 529.15 283.561C528.023 283.561 526.856 283.641 525.648 283.802C524.521 283.882 523.394 284.003 522.266 284.164C521.622 284.164 521.3 283.802 521.3 283.078C521.3 282.274 521.622 281.751 522.266 281.51C523.233 281.188 524.239 280.987 525.286 280.907C526.413 280.746 527.46 280.585 528.426 280.424C530.68 280.022 532.935 279.58 535.189 279.098C537.443 278.615 539.657 278.092 541.831 277.529C542.073 277.449 542.395 277.409 542.797 277.409C543.683 277.409 544.126 277.891 544.126 278.856C544.126 288.345 544.086 297.874 544.005 307.444C544.005 317.013 544.005 326.583 544.005 336.152C544.005 337.439 544.569 338.363 545.696 338.926C546.904 339.409 548.031 339.65 549.078 339.65C549.883 339.65 550.688 339.61 551.493 339.529C552.379 339.449 553.224 339.409 554.029 339.409C554.351 339.409 554.553 339.61 554.633 340.012C554.714 340.414 554.754 340.695 554.754 340.856ZM544.971 257.385C544.971 259.396 544.247 261.125 542.797 262.572C541.348 263.939 539.617 264.623 537.604 264.623C535.591 264.623 533.86 263.939 532.411 262.572C530.962 261.125 530.237 259.396 530.237 257.385C530.237 255.375 530.962 253.686 532.411 252.319C533.86 250.872 535.591 250.148 537.604 250.148C539.617 250.148 541.348 250.872 542.797 252.319C544.247 253.686 544.971 255.375 544.971 257.385Z" fill="#776B5D"/>
<path d="M632.5 340.856C632.5 341.902 631.896 342.424 630.688 342.424C628.917 342.424 627.106 342.384 625.254 342.304C623.402 342.143 621.55 342.063 619.698 342.063C616.961 342.063 614.143 342.143 611.244 342.304C608.426 342.384 605.608 342.424 602.79 342.424C602.468 342.424 602.267 342.183 602.187 341.701C602.106 341.138 602.066 340.695 602.066 340.374C602.066 339.73 602.468 339.409 603.273 339.409C604.079 339.409 604.723 339.409 605.206 339.409C605.608 339.409 606.011 339.449 606.414 339.529C606.897 339.529 607.339 339.529 607.742 339.529C610.077 339.529 611.365 338.363 611.607 336.031C611.848 331.287 611.929 326.502 611.848 321.677C611.848 316.852 611.848 312.068 611.848 307.323C611.848 306.439 611.848 305.554 611.848 304.67C611.848 303.705 611.848 302.78 611.848 301.895C611.768 300.046 611.647 297.794 611.486 295.14C611.325 292.406 610.963 290.195 610.399 288.506C609.111 284.325 606.293 282.234 601.945 282.234C598 282.234 594.377 283.239 591.076 285.249C587.775 287.26 584.916 289.793 582.501 292.849C582.42 298.719 582.38 304.549 582.38 310.339C582.38 316.129 582.38 321.919 582.38 327.708V336.031C582.38 337.238 582.903 338.122 583.95 338.685C584.997 339.248 586.044 339.529 587.09 339.529C587.734 339.529 588.338 339.489 588.902 339.409C589.546 339.248 590.15 339.168 590.713 339.168C591.035 339.168 591.237 339.369 591.317 339.771C591.398 340.173 591.438 340.494 591.438 340.736C591.438 341.057 591.317 341.419 591.076 341.821C590.915 342.223 590.593 342.424 590.109 342.424C588.338 342.424 586.567 342.384 584.796 342.304C583.105 342.143 581.374 342.063 579.602 342.063C576.865 342.063 574.127 342.143 571.39 342.304C568.652 342.384 565.875 342.424 563.057 342.424C562.654 342.424 562.413 342.183 562.332 341.701C562.332 341.138 562.332 340.695 562.332 340.374C562.332 339.73 562.695 339.409 563.419 339.409C564.144 339.409 564.707 339.409 565.11 339.409C565.513 339.409 565.915 339.449 566.318 339.529C566.72 339.529 567.123 339.529 567.525 339.529C569.86 339.529 571.148 338.363 571.39 336.031C571.47 334.906 571.511 333.78 571.511 332.654C571.511 331.528 571.511 330.402 571.511 329.277C571.511 322.361 571.511 315.445 571.511 308.529C571.511 301.533 571.47 294.577 571.39 287.662C571.39 286.536 571.148 285.41 570.665 284.284C570.182 283.159 569.256 282.596 567.888 282.596C566.841 282.596 565.835 282.756 564.868 283.078C563.902 283.4 562.896 283.561 561.849 283.561C561.285 283.561 561.004 283.159 561.004 282.354C561.004 282.194 561.004 282.033 561.004 281.872C561.084 281.631 561.165 281.47 561.245 281.389C561.326 281.309 561.447 281.269 561.608 281.269C561.769 281.188 561.889 281.108 561.97 281.028C563.419 280.625 564.909 280.344 566.438 280.183C568.049 280.022 569.578 279.781 571.028 279.459C572.396 279.218 573.725 278.897 575.013 278.494C576.301 278.012 577.59 277.771 578.878 277.771C579.441 277.771 579.884 278.052 580.206 278.615C580.609 279.339 580.931 280.384 581.172 281.751C581.414 283.038 581.575 284.365 581.656 285.732C581.817 287.099 581.897 288.225 581.897 289.109C583.668 287.34 585.762 285.611 588.177 283.922C590.673 282.153 593.249 280.706 595.906 279.58C598.644 278.374 601.301 277.771 603.877 277.771C611.285 277.771 616.276 279.419 618.853 282.716C621.51 285.933 622.838 291.039 622.838 298.035C622.838 304.308 622.798 310.58 622.718 316.852C622.718 323.125 622.718 329.397 622.718 335.67C622.718 337.197 623.16 338.243 624.046 338.806C625.012 339.288 626.139 339.529 627.428 339.529C628.072 339.529 628.716 339.489 629.36 339.409C630.004 339.248 630.608 339.168 631.172 339.168C631.655 339.168 631.977 339.369 632.138 339.771C632.379 340.092 632.5 340.454 632.5 340.856Z" fill="#776B5D"/>
<path d="M79.5 387.962V367.429H91.8919V369.635H81.9864V376.572H91.2502V378.778H81.9864V385.756H92.0523V387.962H79.5Z" fill="#776B5D"/>
<path d="M107.602 372.562C107.482 371.546 106.994 370.757 106.138 370.196C105.283 369.635 104.234 369.354 102.99 369.354C102.081 369.354 101.286 369.501 100.604 369.795C99.9292 370.089 99.4012 370.493 99.0202 371.008C98.6459 371.523 98.4587 372.108 98.4587 372.763C98.4587 373.311 98.5891 373.782 98.8497 374.176C99.1171 374.564 99.458 374.888 99.8724 375.149C100.287 375.403 100.721 375.613 101.176 375.78C101.63 375.941 102.048 376.071 102.429 376.171L104.514 376.733C105.049 376.873 105.644 377.067 106.299 377.314C106.961 377.562 107.592 377.899 108.194 378.327C108.802 378.748 109.303 379.289 109.698 379.951C110.092 380.613 110.289 381.425 110.289 382.387C110.289 383.497 109.998 384.499 109.417 385.395C108.842 386.291 108 387.003 106.89 387.531C105.788 388.059 104.447 388.323 102.87 388.323C101.4 388.323 100.126 388.085 99.0503 387.611C97.9808 387.136 97.1387 386.474 96.5238 385.626C95.9155 384.777 95.5713 383.791 95.4911 382.668H98.0577C98.1245 383.443 98.3852 384.085 98.8397 384.593C99.3009 385.094 99.8824 385.469 100.584 385.716C101.293 385.956 102.055 386.077 102.87 386.077C103.819 386.077 104.671 385.923 105.427 385.616C106.182 385.301 106.78 384.867 107.221 384.312C107.662 383.751 107.883 383.096 107.883 382.347C107.883 381.665 107.692 381.111 107.311 380.683C106.931 380.255 106.429 379.908 105.808 379.64C105.186 379.373 104.514 379.139 103.792 378.938L101.266 378.217C99.6618 377.755 98.3919 377.097 97.4562 376.242C96.5204 375.386 96.0525 374.266 96.0525 372.883C96.0525 371.733 96.3633 370.731 96.9849 369.875C97.6132 369.013 98.4554 368.345 99.5114 367.87C100.574 367.389 101.761 367.148 103.071 367.148C104.394 367.148 105.57 367.385 106.6 367.86C107.629 368.328 108.444 368.969 109.046 369.785C109.654 370.6 109.975 371.526 110.008 372.562H107.602Z" fill="#776B5D"/>
<path d="M114.377 387.962V367.429H121.315C122.926 367.429 124.243 367.72 125.265 368.301C126.294 368.876 127.056 369.655 127.551 370.637C128.046 371.62 128.293 372.716 128.293 373.926C128.293 375.135 128.046 376.235 127.551 377.224C127.063 378.213 126.308 379.002 125.285 379.59C124.263 380.172 122.953 380.462 121.355 380.462H116.382V378.257H121.275C122.378 378.257 123.263 378.066 123.932 377.685C124.6 377.304 125.085 376.79 125.385 376.141C125.693 375.486 125.847 374.748 125.847 373.926C125.847 373.103 125.693 372.368 125.385 371.72C125.085 371.072 124.597 370.564 123.922 370.196C123.247 369.822 122.351 369.635 121.235 369.635H116.864V387.962H114.377Z" fill="#776B5D"/>
<path d="M132.298 387.962V367.429H139.236C140.84 367.429 142.157 367.703 143.186 368.251C144.216 368.792 144.977 369.538 145.472 370.487C145.967 371.436 146.214 372.515 146.214 373.725C146.214 374.935 145.967 376.008 145.472 376.943C144.977 377.879 144.219 378.614 143.196 379.149C142.174 379.677 140.867 379.941 139.276 379.941H133.662V377.695H139.196C140.292 377.695 141.174 377.535 141.843 377.214C142.518 376.893 143.006 376.439 143.307 375.851C143.614 375.256 143.768 374.547 143.768 373.725C143.768 372.903 143.614 372.184 143.307 371.569C142.999 370.955 142.508 370.48 141.833 370.146C141.158 369.805 140.265 369.635 139.156 369.635H134.785V387.962H132.298ZM141.963 378.738L147.016 387.962H144.129L139.156 378.738H141.963Z" fill="#776B5D"/>
<path d="M150.357 387.962V367.429H162.749V369.635H152.844V376.572H162.107V378.778H152.844V385.756H162.909V387.962H150.357Z" fill="#776B5D"/>
<path d="M178.459 372.562C178.339 371.546 177.851 370.757 176.996 370.196C176.14 369.635 175.091 369.354 173.848 369.354C172.939 369.354 172.143 369.501 171.461 369.795C170.786 370.089 170.258 370.493 169.877 371.008C169.503 371.523 169.316 372.108 169.316 372.763C169.316 373.311 169.446 373.782 169.707 374.176C169.974 374.564 170.315 374.888 170.73 375.149C171.144 375.403 171.578 375.613 172.033 375.78C172.487 375.941 172.905 376.071 173.286 376.171L175.371 376.733C175.906 376.873 176.501 377.067 177.156 377.314C177.818 377.562 178.449 377.899 179.051 378.327C179.659 378.748 180.16 379.289 180.555 379.951C180.949 380.613 181.146 381.425 181.146 382.387C181.146 383.497 180.856 384.499 180.274 385.395C179.699 386.291 178.857 387.003 177.748 387.531C176.645 388.059 175.305 388.323 173.727 388.323C172.257 388.323 170.983 388.085 169.907 387.611C168.838 387.136 167.996 386.474 167.381 385.626C166.773 384.777 166.428 383.791 166.348 382.668H168.915C168.982 383.443 169.242 384.085 169.697 384.593C170.158 385.094 170.74 385.469 171.441 385.716C172.15 385.956 172.912 386.077 173.727 386.077C174.676 386.077 175.529 385.923 176.284 385.616C177.039 385.301 177.637 384.867 178.078 384.312C178.52 383.751 178.74 383.096 178.74 382.347C178.74 381.665 178.55 381.111 178.169 380.683C177.788 380.255 177.286 379.908 176.665 379.64C176.043 379.373 175.371 379.139 174.65 378.938L172.123 378.217C170.519 377.755 169.249 377.097 168.313 376.242C167.378 375.386 166.91 374.266 166.91 372.883C166.91 371.733 167.22 370.731 167.842 369.875C168.47 369.013 169.313 368.345 170.369 367.87C171.431 367.389 172.618 367.148 173.928 367.148C175.251 367.148 176.427 367.385 177.457 367.86C178.486 368.328 179.302 368.969 179.903 369.785C180.511 370.6 180.832 371.526 180.866 372.562H178.459Z" fill="#776B5D"/>
<path d="M196.463 372.562C196.343 371.546 195.855 370.757 194.999 370.196C194.144 369.635 193.094 369.354 191.851 369.354C190.942 369.354 190.147 369.501 189.465 369.795C188.79 370.089 188.262 370.493 187.881 371.008C187.507 371.523 187.32 372.108 187.32 372.763C187.32 373.311 187.45 373.782 187.711 374.176C187.978 374.564 188.319 374.888 188.733 375.149C189.148 375.403 189.582 375.613 190.037 375.78C190.491 375.941 190.909 376.071 191.29 376.171L193.375 376.733C193.91 376.873 194.505 377.067 195.16 377.314C195.822 377.562 196.453 377.899 197.055 378.327C197.663 378.748 198.164 379.289 198.559 379.951C198.953 380.613 199.15 381.425 199.15 382.387C199.15 383.497 198.859 384.499 198.278 385.395C197.703 386.291 196.861 387.003 195.751 387.531C194.648 388.059 193.308 388.323 191.731 388.323C190.261 388.323 188.987 388.085 187.911 387.611C186.842 387.136 186 386.474 185.385 385.626C184.776 384.777 184.432 383.791 184.352 382.668H186.919C186.985 383.443 187.246 384.085 187.701 384.593C188.162 385.094 188.743 385.469 189.445 385.716C190.154 385.956 190.916 386.077 191.731 386.077C192.68 386.077 193.532 385.923 194.288 385.616C195.043 385.301 195.641 384.867 196.082 384.312C196.523 383.751 196.744 383.096 196.744 382.347C196.744 381.665 196.553 381.111 196.172 380.683C195.791 380.255 195.29 379.908 194.669 379.64C194.047 379.373 193.375 379.139 192.653 378.938L190.127 378.217C188.523 377.755 187.253 377.097 186.317 376.242C185.381 375.386 184.913 374.266 184.913 372.883C184.913 371.733 185.224 370.731 185.846 369.875C186.474 369.013 187.316 368.345 188.372 367.87C189.435 367.389 190.621 367.148 191.932 367.148C193.255 367.148 194.431 367.385 195.461 367.86C196.49 368.328 197.305 368.969 197.907 369.785C198.515 370.6 198.836 371.526 198.869 372.562H196.463Z" fill="#776B5D"/>
<path d="M220.563 377.695C220.563 379.861 220.172 381.732 219.39 383.31C218.608 384.887 217.535 386.104 216.171 386.959C214.808 387.815 213.25 388.242 211.499 388.242C209.748 388.242 208.191 387.815 206.827 386.959C205.464 386.104 204.391 384.887 203.609 383.31C202.827 381.732 202.436 379.861 202.436 377.695C202.436 375.53 202.827 373.658 203.609 372.081C204.391 370.503 205.464 369.287 206.827 368.431C208.191 367.576 209.748 367.148 211.499 367.148C213.25 367.148 214.808 367.576 216.171 368.431C217.535 369.287 218.608 370.503 219.39 372.081C220.172 373.658 220.563 375.53 220.563 377.695ZM218.156 377.695C218.156 375.917 217.859 374.417 217.264 373.194C216.676 371.971 215.877 371.045 214.868 370.417C213.865 369.788 212.742 369.474 211.499 369.474C210.256 369.474 209.13 369.788 208.121 370.417C207.118 371.045 206.319 371.971 205.724 373.194C205.136 374.417 204.842 375.917 204.842 377.695C204.842 379.473 205.136 380.974 205.724 382.197C206.319 383.42 207.118 384.346 208.121 384.974C209.13 385.602 210.256 385.916 211.499 385.916C212.742 385.916 213.865 385.602 214.868 384.974C215.877 384.346 216.676 383.42 217.264 382.197C217.859 380.974 218.156 379.473 218.156 377.695Z" fill="#776B5D"/>
<path d="M236.293 378.979L236.453 374.567L232.724 376.933L231.761 375.249L235.691 373.204L231.761 371.158L232.724 369.474L236.453 371.84L236.293 367.429H238.218L238.058 371.84L241.787 369.474L242.75 371.158L238.82 373.204L242.75 375.249L241.787 376.933L238.058 374.567L238.218 378.979H236.293Z" fill="#776B5D"/>
<path d="M271.263 373.845H268.777C268.63 373.13 268.372 372.502 268.005 371.961C267.644 371.419 267.202 370.965 266.681 370.597C266.167 370.223 265.595 369.942 264.967 369.755C264.338 369.568 263.683 369.474 263.002 369.474C261.758 369.474 260.632 369.788 259.623 370.417C258.62 371.045 257.822 371.971 257.227 373.194C256.639 374.417 256.345 375.917 256.345 377.695C256.345 379.473 256.639 380.974 257.227 382.197C257.822 383.42 258.62 384.346 259.623 384.974C260.632 385.602 261.758 385.916 263.002 385.916C263.683 385.916 264.338 385.823 264.967 385.636C265.595 385.449 266.167 385.171 266.681 384.804C267.202 384.429 267.644 383.971 268.005 383.43C268.372 382.882 268.63 382.254 268.777 381.545H271.263C271.076 382.595 270.735 383.534 270.24 384.362C269.746 385.191 269.131 385.896 268.396 386.478C267.66 387.053 266.835 387.49 265.919 387.791C265.01 388.092 264.038 388.242 263.002 388.242C261.251 388.242 259.693 387.815 258.33 386.959C256.966 386.104 255.893 384.887 255.111 383.31C254.329 381.732 253.938 379.861 253.938 377.695C253.938 375.53 254.329 373.658 255.111 372.081C255.893 370.503 256.966 369.287 258.33 368.431C259.693 367.576 261.251 367.148 263.002 367.148C264.038 367.148 265.01 367.299 265.919 367.599C266.835 367.9 267.66 368.341 268.396 368.923C269.131 369.498 269.746 370.199 270.24 371.028C270.735 371.85 271.076 372.789 271.263 373.845Z" fill="#776B5D"/>
<path d="M292.605 377.695C292.605 379.861 292.214 381.732 291.432 383.31C290.65 384.887 289.578 386.104 288.214 386.959C286.85 387.815 285.293 388.242 283.542 388.242C281.791 388.242 280.233 387.815 278.87 386.959C277.506 386.104 276.434 384.887 275.652 383.31C274.87 381.732 274.479 379.861 274.479 377.695C274.479 375.53 274.87 373.658 275.652 372.081C276.434 370.503 277.506 369.287 278.87 368.431C280.233 367.576 281.791 367.148 283.542 367.148C285.293 367.148 286.85 367.576 288.214 368.431C289.578 369.287 290.65 370.503 291.432 372.081C292.214 373.658 292.605 375.53 292.605 377.695ZM290.199 377.695C290.199 375.917 289.902 374.417 289.307 373.194C288.719 371.971 287.92 371.045 286.911 370.417C285.908 369.788 284.785 369.474 283.542 369.474C282.299 369.474 281.173 369.788 280.163 370.417C279.161 371.045 278.362 371.971 277.767 373.194C277.179 374.417 276.885 375.917 276.885 377.695C276.885 379.473 277.179 380.974 277.767 382.197C278.362 383.42 279.161 384.346 280.163 384.974C281.173 385.602 282.299 385.916 283.542 385.916C284.785 385.916 285.908 385.602 286.911 384.974C287.92 384.346 288.719 383.42 289.307 382.197C289.902 380.974 290.199 379.473 290.199 377.695Z" fill="#776B5D"/>
<path d="M296.786 387.962V367.429H299.272V385.756H308.817V387.962H296.786Z" fill="#776B5D"/>
<path d="M319.003 387.962H312.667V367.429H319.284C321.276 367.429 322.98 367.84 324.397 368.662C325.814 369.477 326.9 370.65 327.655 372.181C328.411 373.705 328.788 375.53 328.788 377.655C328.788 379.794 328.407 381.635 327.645 383.179C326.883 384.717 325.774 385.9 324.317 386.728C322.86 387.551 321.089 387.962 319.003 387.962ZM315.153 385.756H318.843C320.54 385.756 321.947 385.428 323.064 384.773C324.18 384.118 325.012 383.186 325.56 381.976C326.108 380.766 326.382 379.326 326.382 377.655C326.382 375.998 326.111 374.571 325.57 373.374C325.029 372.171 324.22 371.249 323.144 370.607C322.068 369.959 320.728 369.635 319.123 369.635H315.153V385.756Z" fill="#776B5D"/>
<path d="M347.236 387.962H340.899V367.429H347.516C349.508 367.429 351.213 367.84 352.63 368.662C354.047 369.477 355.133 370.65 355.888 372.181C356.643 373.705 357.021 375.53 357.021 377.655C357.021 379.794 356.64 381.635 355.878 383.179C355.116 384.717 354.006 385.9 352.549 386.728C351.092 387.551 349.321 387.962 347.236 387.962ZM343.386 385.756H347.075C348.773 385.756 350.18 385.428 351.296 384.773C352.412 384.118 353.244 383.186 353.793 381.976C354.341 380.766 354.615 379.326 354.615 377.655C354.615 375.998 354.344 374.571 353.803 373.374C353.261 372.171 352.452 371.249 351.376 370.607C350.3 369.959 348.96 369.635 347.356 369.635H343.386V385.756Z" fill="#776B5D"/>
<path d="M361.192 387.962V367.429H368.129C369.734 367.429 371.05 367.703 372.08 368.251C373.109 368.792 373.871 369.538 374.365 370.487C374.86 371.436 375.107 372.515 375.107 373.725C375.107 374.935 374.86 376.008 374.365 376.943C373.871 377.879 373.112 378.614 372.09 379.149C371.067 379.677 369.76 379.941 368.17 379.941H362.555V377.695H368.089C369.185 377.695 370.068 377.535 370.736 377.214C371.411 376.893 371.899 376.439 372.2 375.851C372.507 375.256 372.661 374.547 372.661 373.725C372.661 372.903 372.507 372.184 372.2 371.569C371.892 370.955 371.401 370.48 370.726 370.146C370.051 369.805 369.159 369.635 368.049 369.635H363.678V387.962H361.192ZM370.856 378.738L375.909 387.962H373.022L368.049 378.738H370.856Z" fill="#776B5D"/>
<path d="M381.737 367.429V387.962H379.251V367.429H381.737Z" fill="#776B5D"/>
<path d="M403.004 367.429V387.962H400.598L389.409 371.84H389.209V387.962H386.722V367.429H389.128L400.357 383.59H400.558V367.429H403.004Z" fill="#776B5D"/>
<path d="M407.979 387.962V367.429H410.466V377.615H410.706L419.93 367.429H423.178L414.556 376.693L423.178 387.962H420.171L413.032 378.417L410.466 381.305V387.962H407.979Z" fill="#776B5D"/>
<path d="M437.626 372.562C437.505 371.546 437.017 370.757 436.162 370.196C435.306 369.635 434.257 369.354 433.014 369.354C432.105 369.354 431.309 369.501 430.628 369.795C429.952 370.089 429.424 370.493 429.043 371.008C428.669 371.523 428.482 372.108 428.482 372.763C428.482 373.311 428.612 373.782 428.873 374.176C429.14 374.564 429.481 374.888 429.896 375.149C430.31 375.403 430.745 375.613 431.199 375.78C431.654 375.941 432.071 376.071 432.452 376.171L434.538 376.733C435.072 376.873 435.667 377.067 436.322 377.314C436.984 377.562 437.616 377.899 438.217 378.327C438.825 378.748 439.327 379.289 439.721 379.951C440.115 380.613 440.312 381.425 440.312 382.387C440.312 383.497 440.022 384.499 439.44 385.395C438.865 386.291 438.023 387.003 436.914 387.531C435.811 388.059 434.471 388.323 432.893 388.323C431.423 388.323 430.15 388.085 429.074 387.611C428.004 387.136 427.162 386.474 426.547 385.626C425.939 384.777 425.595 383.791 425.514 382.668H428.081C428.148 383.443 428.409 384.085 428.863 384.593C429.324 385.094 429.906 385.469 430.608 385.716C431.316 385.956 432.078 386.077 432.893 386.077C433.842 386.077 434.695 385.923 435.45 385.616C436.205 385.301 436.803 384.867 437.245 384.312C437.686 383.751 437.906 383.096 437.906 382.347C437.906 381.665 437.716 381.111 437.335 380.683C436.954 380.255 436.453 379.908 435.831 379.64C435.209 379.373 434.538 379.139 433.816 378.938L431.289 378.217C429.685 377.755 428.415 377.097 427.479 376.242C426.544 375.386 426.076 374.266 426.076 372.883C426.076 371.733 426.387 370.731 427.008 369.875C427.637 369.013 428.479 368.345 429.535 367.87C430.597 367.389 431.784 367.148 433.094 367.148C434.417 367.148 435.594 367.385 436.623 367.86C437.652 368.328 438.468 368.969 439.069 369.785C439.678 370.6 439.998 371.526 440.032 372.562H437.626Z" fill="#776B5D"/>
<path d="M455.95 378.979L456.111 374.567L452.381 376.933L451.419 375.249L455.349 373.204L451.419 371.158L452.381 369.474L456.111 371.84L455.95 367.429H457.875L457.715 371.84L461.444 369.474L462.407 371.158L458.477 373.204L462.407 375.249L461.444 376.933L457.715 374.567L457.875 378.979H455.95Z" fill="#776B5D"/>
<path d="M474.398 387.962V367.429H486.709V369.635H476.884V376.572H485.787V378.778H476.884V387.962H474.398Z" fill="#776B5D"/>
<path d="M490.968 387.962V367.429H497.906C499.51 367.429 500.826 367.703 501.856 368.251C502.885 368.792 503.647 369.538 504.142 370.487C504.636 371.436 504.883 372.515 504.883 373.725C504.883 374.935 504.636 376.008 504.142 376.943C503.647 377.879 502.888 378.614 501.866 379.149C500.843 379.677 499.536 379.941 497.946 379.941H492.331V377.695H497.865C498.962 377.695 499.844 377.535 500.512 377.214C501.187 376.893 501.675 376.439 501.976 375.851C502.283 375.256 502.437 374.547 502.437 373.725C502.437 372.903 502.283 372.184 501.976 371.569C501.668 370.955 501.177 370.48 500.502 370.146C499.827 369.805 498.935 369.635 497.825 369.635H493.454V387.962H490.968ZM500.633 378.738L505.685 387.962H502.798L497.825 378.738H500.633Z" fill="#776B5D"/>
<path d="M509.869 387.962H507.262L514.801 367.429H517.368L524.907 387.962H522.301L516.165 370.677H516.005L509.869 387.962ZM510.831 379.941H521.338V382.147H510.831V379.941Z" fill="#776B5D"/>
<path d="M528.106 387.962V367.429H535.043C536.654 367.429 537.971 367.72 538.994 368.301C540.023 368.876 540.785 369.655 541.279 370.637C541.774 371.62 542.021 372.716 542.021 373.926C542.021 375.135 541.774 376.235 541.279 377.224C540.792 378.213 540.036 379.002 539.014 379.59C537.991 380.172 536.681 380.462 535.084 380.462H530.111V378.257H535.003C536.106 378.257 536.992 378.066 537.66 377.685C538.329 377.304 538.813 376.79 539.114 376.141C539.421 375.486 539.575 374.748 539.575 373.926C539.575 373.103 539.421 372.368 539.114 371.72C538.813 371.072 538.325 370.564 537.65 370.196C536.975 369.822 536.079 369.635 534.963 369.635H530.592V387.962H528.106Z" fill="#776B5D"/>
<path d="M546.027 387.962V367.429H552.965C554.575 367.429 555.892 367.72 556.915 368.301C557.944 368.876 558.706 369.655 559.201 370.637C559.695 371.62 559.943 372.716 559.943 373.926C559.943 375.135 559.695 376.235 559.201 377.224C558.713 378.213 557.957 379.002 556.935 379.59C555.912 380.172 554.602 380.462 553.005 380.462H548.032V378.257H552.924C554.027 378.257 554.913 378.066 555.581 377.685C556.25 377.304 556.734 376.79 557.035 376.141C557.342 375.486 557.496 374.748 557.496 373.926C557.496 373.103 557.342 372.368 557.035 371.72C556.734 371.072 556.246 370.564 555.571 370.196C554.896 369.822 554.001 369.635 552.884 369.635H548.513V387.962H546.027Z" fill="#776B5D"/>
<path d="M563.948 387.962V367.429H576.34V369.635H566.434V376.572H575.698V378.778H566.434V385.756H576.5V387.962H563.948Z" fill="#776B5D"/>
</svg>
